<svg xmlns="http://www.w3.org/2000/svg" viewBox="0 0 174 67.25"><defs><style>.cls-1{fill:#0e0e0e;}</style></defs><title>Asset 1</title><g id="Layer_2" data-name="Layer 2"><g id="Layer_2-2" data-name="Layer 2"><rect class="cls-1" width="18" height="67.25"/><polygon class="cls-1" points="24.25 0 46.5 0 52 30.75 56 0 79 0 79 67.25 63.25 67.25 63.25 23.25 57.13 67.25 46.5 67.25 39.75 22.75 39.75 67.25 24.25 67.25 24.25 0"/><path class="cls-1" d="M115.5,0H85V67.25h30.5c10.38,0,11.25-11.87,11.25-11.87V11.25C126.75.88,115.5,0,115.5,0ZM103,55.42V11.33s5.92-.42,5.92,2.75.08,38.75.08,38.75S108.42,55.42,103,55.42Z"/><path class="cls-1" d="M161.58,17c-7.75,0-11.08,4.83-11.08,4.83V0H132.75V67.25h17.17a20.82,20.82,0,0,1,.58-4.58s2.25,3.67,11.67,4.58c11.67,0,11.83-11.87,11.83-11.87V26.83C174,23.25,169.33,17,161.58,17Zm-4.83,38.33s-.17,1.88-3,1.88-3.21-1.87-3.21-1.87l.17-26.17s.25-1.92,3.08-1.92,3,1.92,3,1.92Z"/></g></g></svg>